# xmcd
#
# Track frame offsets:
#       225
#       16329
#       35470
#       51209
#       69240
#
# Disc length: 1162 seconds
#
# Revision: 0
# Processed by: cddbd v1.4PL0 Copyright (c) Steve Scherf et al.
# Submitted via: CD-DA_X-Tractor v0.21
#
DISCID=38048705
DTITLE=Gospel Bergen - Gospel Bergen
DYEAR=1900
DGENRE=
TTITLE0=Let the anointing
TTITLE1=No one else
TTITLE2=His eye is on the sparrow
TTITLE3=Stir up the gift
TTITLE4=Watch God move
EXTD=
EXTT0=
EXTT1=
EXTT2=
EXTT3=
EXTT4=
PLAYORDER=
